
<svg version="1.0" xmlns="http://www.w3.org/2000/svg"
 width="50px" height="50px" viewBox="0 0 500.000000 500.000000"
 preserveAspectRatio="xMidYMid meet">

<g transform="translate(0.000000,500.000000) scale(0.100000,-0.100000)"
fill="#000000" stroke="none">
<path d="M0 4561 l0 -70 288 -3 c279 -3 288 -4 332 -27 60 -31 127 -96 155
-151 26 -52 116 -358 456 -1555 132 -467 244 -854 248 -858 8 -8 2850 -12
2857 -4 4 3 514 1904 539 2009 l7 28 -1923 2 -1924 3 -56 192 c-78 265 -108
321 -218 403 -118 89 -173 100 -501 100 l-260 0 0 -69z m2314 -820 c-223 -158
-373 -393 -419 -660 -8 -46 -15 -85 -15 -87 0 -2 -129 -4 -287 -4 l-288 0
-109 383 c-60 210 -111 390 -114 400 -4 16 32 17 648 17 l653 0 -69 -49z
m2386 37 c-1 -7 -47 -186 -104 -398 l-102 -385 -282 -3 -282 -2 -4 22 c-29
155 -43 207 -78 288 -22 52 -61 126 -85 165 -58 89 -178 213 -267 276 l-69 49
636 0 c503 0 637 -3 637 -12z m-1570 -164 c0 -50 -53 -114 -94 -114 -12 0
-156 87 -156 94 0 1 15 2 33 2 34 2 61 7 147 28 30 8 58 14 63 15 4 1 7 -11 7
-25z m393 -66 c9 -1 17 -3 17 -4 0 -1 -28 -19 -62 -42 -35 -22 -106 -74 -158
-116 -52 -42 -98 -76 -102 -76 -3 0 -37 28 -74 63 l-67 63 46 57 c25 31 49 52
52 47 4 -6 9 -8 13 -6 4 2 54 7 112 11 58 4 106 8 107 9 3 3 87 -2 116 -6z
m-559 -71 c18 -25 18 -27 2 -52 -17 -26 -107 -75 -136 -74 -8 0 -3 5 11 10 22
8 26 17 28 52 1 23 4 58 5 77 2 19 -2 42 -8 50 -6 8 9 3 34 -12 25 -14 54 -38
64 -51z m586 -169 c28 -103 35 -118 54 -119 11 0 -7 -7 -42 -14 -35 -8 -88
-25 -119 -39 -30 -15 -57 -26 -59 -26 -1 0 -31 34 -65 77 l-63 76 42 38 c77
68 205 150 213 137 4 -7 22 -66 39 -130z m-440 27 c35 -35 62 -66 59 -69 -34
-31 -222 -186 -225 -186 -3 0 -3 4 0 9 3 4 -23 51 -57 103 l-63 95 47 18 c26
11 71 35 101 56 29 20 58 37 63 38 6 1 39 -28 75 -64z m184 -190 l56 -70 -44
-45 c-25 -25 -61 -73 -81 -108 l-36 -62 -91 87 c-50 49 -95 87 -102 85 -15 -3
62 68 153 140 41 33 77 56 82 51 4 -4 33 -39 63 -78z m395 -31 c2 -2 -5 -4
-17 -4 -12 0 -22 -4 -22 -9 0 -4 -12 -24 -27 -44 -26 -33 -52 -70 -87 -121
-11 -17 -16 -12 -59 54 -25 39 -43 78 -40 86 8 21 60 47 108 54 36 5 134 -6
144 -16z m-272 -126 c11 -13 32 -41 46 -64 l25 -41 -115 -10 c-79 -7 -118 -14
-125 -24 -15 -22 1 29 23 72 23 45 73 89 103 89 12 0 32 -10 43 -22z m-1533
-200 c21 -188 105 -384 230 -537 59 -72 117 -124 211 -190 l58 -41 -401 0
c-373 0 -401 1 -406 18 -40 135 -226 794 -226 802 0 7 89 10 264 10 l263 0 7
-62z m2561 35 c-3 -16 -52 -201 -108 -413 l-103 -385 -404 -3 -403 -2 69 49
c227 160 373 396 421 680 l18 101 258 0 259 0 -7 -27z"/>
<path d="M2079 1669 c-170 -19 -323 -169 -350 -344 -21 -130 15 -248 105 -343
87 -92 177 -132 301 -132 120 0 211 39 298 126 91 92 129 210 110 339 -33 229
-230 380 -464 354z m153 -149 c107 -40 178 -144 178 -260 0 -253 -307 -370
-482 -184 -70 75 -89 204 -44 299 64 135 211 196 348 145z"/>
<path d="M3629 1669 c-78 -8 -174 -56 -232 -115 -167 -168 -163 -435 9 -595
82 -76 167 -109 279 -109 367 0 551 438 294 699 -95 96 -209 136 -350 120z
m153 -149 c193 -73 242 -321 91 -461 -58 -53 -104 -72 -183 -72 -108 -1 -205
55 -252 148 -32 62 -36 168 -9 231 60 139 214 206 353 154z"/>
</g>
</svg>
